<svg id="visual" viewBox="0 0 1920 1080" width="1920" height="1080" xmlns="http://www.w3.org/2000/svg" xmlns:xlink="http://www.w3.org/1999/xlink" version="1.1"><rect x="0" y="0" width="1920" height="1080" fill="#ffffff"></rect><defs><linearGradient id="grad1_0" x1="43.8%" y1="0%" x2="100%" y2="100%"><stop offset="14.444444444444446%" stop-color="#ffffff" stop-opacity="1"></stop><stop offset="85.55555555555554%" stop-color="#ffffff" stop-opacity="1"></stop></linearGradient></defs><defs><linearGradient id="grad2_0" x1="0%" y1="0%" x2="56.3%" y2="100%"><stop offset="14.444444444444446%" stop-color="#ffffff" stop-opacity="1"></stop><stop offset="85.55555555555554%" stop-color="#ffffff" stop-opacity="1"></stop></linearGradient></defs><g transform="translate(1920, 0)"><path d="M0 1026C-148.3 1021.2 -296.5 1016.4 -388.4 937.7C-480.3 859.1 -515.9 706.6 -613.1 613.1C-710.2 519.5 -868.8 485 -947.9 392.6C-1027 300.3 -1026.5 150.1 -1026 0L0 0Z" fill="#FBAE3C"></path></g><g transform="translate(0, 1080)"><path d="M0 -1026C106.3 -943.2 212.7 -860.3 340.6 -822.3C468.5 -784.2 618 -790.8 725.5 -725.5C833 -660.2 898.4 -522.9 941.4 -390C984.5 -257 1005.3 -128.5 1026 0L0 0Z" fill="#FBAE3C"></path></g></svg>